<svg id="visual" viewBox="0 0 900 600" width="900" height="600" xmlns="http://www.w3.org/2000/svg" xmlns:xlink="http://www.w3.org/1999/xlink" version="1.1"><rect x="0" y="0" width="900" height="600" fill="#001220"></rect><defs><linearGradient id="grad1_0" x1="33.3%" y1="0%" x2="100%" y2="100%"><stop offset="20%" stop-color="#001220" stop-opacity="1"></stop><stop offset="80%" stop-color="#001220" stop-opacity="1"></stop></linearGradient></defs><defs><linearGradient id="grad2_0" x1="0%" y1="0%" x2="66.7%" y2="100%"><stop offset="20%" stop-color="#001220" stop-opacity="1"></stop><stop offset="80%" stop-color="#001220" stop-opacity="1"></stop></linearGradient></defs><g transform="translate(900, 0)"><path d="M0 216.3C-24 215.1 -47.9 213.8 -65.2 200.7C-82.5 187.5 -93.1 162.5 -106.4 146.4C-119.7 130.4 -135.7 123.3 -154.5 112.3C-173.3 101.2 -195 86.2 -205.7 66.9C-216.5 47.5 -216.4 23.7 -216.3 0L0 0Z" fill="#FBAE3C"></path></g><g transform="translate(0, 600)"><path d="M0 -216.3C19.7 -205.8 39.5 -195.3 61.5 -189.3C83.5 -183.3 107.8 -181.8 122.8 -169.1C137.9 -156.4 143.6 -132.5 157.8 -114.6C171.9 -96.8 194.6 -84.9 205.7 -66.9C216.9 -48.8 216.6 -24.4 216.3 0L0 0Z" fill="#FBAE3C"></path></g></svg>