<svg id="visual" viewBox="0 0 1640 940" width="1640" height="940" xmlns="http://www.w3.org/2000/svg" xmlns:xlink="http://www.w3.org/1999/xlink" version="1.1"><rect x="0" y="0" width="1640" height="940" fill="#001220"></rect><defs><linearGradient id="grad1_0" x1="42.7%" y1="0%" x2="100%" y2="100%"><stop offset="15.106382978723403%" stop-color="#001220" stop-opacity="1"></stop><stop offset="84.89361702127661%" stop-color="#001220" stop-opacity="1"></stop></linearGradient></defs><defs><linearGradient id="grad2_0" x1="0%" y1="0%" x2="57.3%" y2="100%"><stop offset="15.106382978723403%" stop-color="#001220" stop-opacity="1"></stop><stop offset="84.89361702127661%" stop-color="#001220" stop-opacity="1"></stop></linearGradient></defs><g transform="translate(1640, 0)"><path d="M0 423C-44.9 392.6 -89.8 362.2 -143.5 346.5C-197.2 330.7 -259.8 329.6 -299.1 299.1C-338.5 268.6 -354.6 208.6 -371.4 153.8C-388.2 99.1 -405.6 49.5 -423 0L0 0Z" fill="#FBAE3C"></path></g><g transform="translate(0, 940)"><path d="M0 -423C54.3 -414.6 108.7 -406.1 160.3 -387.1C212 -368.1 261 -338.6 299.1 -299.1C337.2 -259.7 364.6 -210.3 383.4 -158.8C402.3 -107.3 412.6 -53.7 423 0L0 0Z" fill="#FBAE3C"></path></g></svg>